<?xml version="1.0" encoding="utf-8"?>
<!-- Generator: Adobe Illustrator 16.0.0, SVG Export Plug-In . SVG Version: 6.00 Build 0)  -->
<!DOCTYPE svg PUBLIC "-//W3C//DTD SVG 1.1//EN" "http://www.w3.org/Graphics/SVG/1.1/DTD/svg11.dtd">
<svg version="1.1" id="Layer_1" xmlns="http://www.w3.org/2000/svg" xmlns:xlink="http://www.w3.org/1999/xlink" x="0px" y="0px"
	 width="24px" height="24px" viewBox="0 0 24 24" enable-background="new 0 0 24 24" xml:space="preserve">
<path fill="#082B47" d="M12.192,3.046L12.192,3.046c-0.018,0-0.034,0-0.05,0c-0.123,0.001-0.325,0.003-0.343,0.003
	c-0.443,0-1.331,0.063-2.283,0.483C8.97,3.773,8.48,4.098,8.058,4.499c-0.503,0.477-0.913,1.066-1.217,1.75
	C6.395,7.25,6.5,8.935,6.585,10.29v0.002c0.01,0.146,0.019,0.297,0.027,0.445c-0.065,0.03-0.171,0.062-0.328,0.062
	c-0.251,0-0.551-0.081-0.889-0.239c-0.1-0.048-0.214-0.07-0.339-0.07c-0.202,0-0.414,0.06-0.598,0.167
	c-0.232,0.136-0.382,0.328-0.422,0.542C4.009,11.34,4.01,11.62,4.32,11.902c0.17,0.156,0.42,0.3,0.744,0.426
	c0.085,0.035,0.186,0.067,0.292,0.1c0.37,0.119,0.93,0.296,1.076,0.639c0.074,0.175,0.042,0.403-0.094,0.681
	c-0.004,0.008-0.007,0.015-0.01,0.022c-0.034,0.08-0.353,0.801-1.005,1.562c-0.371,0.433-0.78,0.793-1.214,1.074
	c-0.529,0.343-1.104,0.565-1.704,0.665c-0.236,0.04-0.404,0.249-0.391,0.488c0.003,0.069,0.02,0.138,0.048,0.204c0,0,0,0,0,0.001
	c0.095,0.223,0.316,0.413,0.676,0.58c0.439,0.204,1.097,0.376,1.954,0.511c0.043,0.082,0.087,0.288,0.119,0.431
	c0.033,0.149,0.066,0.305,0.115,0.47c0.053,0.178,0.188,0.392,0.536,0.392c0.132,0,0.284-0.03,0.46-0.064
	c0.257-0.05,0.608-0.12,1.047-0.12c0.244,0,0.497,0.021,0.75,0.064c0.489,0.081,0.912,0.38,1.399,0.724
	c0.715,0.506,1.523,1.078,2.76,1.078c0.033,0,0.067-0.001,0.101-0.004c0.042,0.003,0.091,0.004,0.146,0.004
	c1.236,0,2.044-0.572,2.758-1.077l0.001-0.001c0.487-0.345,0.91-0.643,1.399-0.724c0.254-0.043,0.505-0.064,0.75-0.064
	c0.419,0,0.751,0.054,1.047,0.112c0.193,0.038,0.345,0.056,0.46,0.056l0.012,0.001h0.012c0.254,0,0.441-0.14,0.514-0.385
	c0.046-0.161,0.08-0.313,0.113-0.465c0.029-0.133,0.075-0.345,0.119-0.429c0.857-0.135,1.515-0.306,1.954-0.511
	c0.358-0.166,0.58-0.355,0.676-0.578c0.028-0.066,0.045-0.135,0.05-0.205c0.013-0.239-0.156-0.449-0.393-0.488
	c-2.67-0.439-3.873-3.185-3.923-3.301c-0.003-0.008-0.007-0.015-0.011-0.022c-0.137-0.277-0.169-0.506-0.094-0.681
	c0.146-0.343,0.704-0.52,1.074-0.639c0.108-0.032,0.209-0.065,0.293-0.1c0.363-0.143,0.626-0.299,0.796-0.475
	c0.206-0.213,0.245-0.416,0.243-0.547c-0.006-0.321-0.252-0.606-0.64-0.746c-0.134-0.055-0.283-0.083-0.438-0.083
	c-0.104,0-0.257,0.014-0.402,0.083c-0.313,0.145-0.593,0.226-0.833,0.237c-0.127-0.008-0.218-0.034-0.274-0.062
	c0.006-0.124,0.014-0.253,0.023-0.387l0.003-0.057c0.086-1.356,0.19-3.044-0.255-4.046c-0.306-0.687-0.718-1.276-1.222-1.755
	c-0.425-0.4-0.917-0.725-1.462-0.966C13.523,3.108,12.636,3.046,12.192,3.046"/>
</svg>
